# xmcd
#
# Track frame offsets:
#	150
#	11870
#	24715
#	42805
#	55597
#	69007
#	81775
#	98057
#	108012
#	121830
#	136117
#	150022
#
# Disc length: 2161
#
# Revision: 2
# Processed by: cddbd v1.5.1PL0 Copyright (c) Steve Scherf et al.
# Submitted via: audiograbber 1.80
# Normalized: r1:DSETVAR1
#
DISCID=7c086f0c
DTITLE=Various Artist - Brothers in Blues and Sisters in Soul
DYEAR=1900
DGENRE=
TTITLE0=Sam and Dave - Soul Man
TTITLE1=Fontella Bass - Rescue Me
TTITLE2=Doby Gray - Drift Away
TTITLE3=Carla Thomas - BABY
TTITLE4=Percy Sledge - When a man loves a woman
TTITLE5=Mary Wells - My Guy
TTITLE6=Harold Melvin and The Blue Notes - Wake up Everybody
TTITLE7=Betty Everett - It's in his kiss (Shoop Shoop Song)
TTITLE8=Ben E. King - Stand by me
TTITLE9=Etta James - All I could was cry
TTITLE10=Eddie Floyd - Knock on wood
TTITLE11=Martha Reeves - Dancing in the street
EXTD=
EXTT0=
EXTT1=
EXTT2=
EXTT3=
EXTT4=
EXTT5=
EXTT6=
EXTT7=
EXTT8=
EXTT9=
EXTT10=
EXTT11=
PLAYORDER=
